# xmcd
#
# Track frame offsets:
# 150
# 15510
# 25992
# 43417
# 56797
# 67125
# 79642
# 92360
# 104615
# 116350
# 130015
# 144590
# 160142
# 174505
#
# Disc length: 2494 seconds
#
#
# Revision: 1
# Processed by: cddbd v1.5.1PL2 Copyright (c) Steve Scherf et al.
# Submitted via: FreeRIP 2.944 
#
DISCID=b909bc0e
DTITLE=Cascatinha e Inhana - India
DYEAR=1998
DGENRE=Sertanejo
TTITLE0=Índia
TTITLE1=Desilusão
TTITLE2=Rolinha (La Paloma)
TTITLE3=Nossa Noite (Nuestra Noche)
TTITLE4=Assunción
TTITLE5=Recordações de Ypacaray
TTITLE6=Meu Primeiro Amor
TTITLE7=Recordando
TTITLE8=Noite de Lua
TTITLE9=Solidão (Che Picassu Mi)
TTITLE10=Queira-me Muito (Quiereme Mucho)
TTITLE11=Guaraçai
TTITLE12=Iracema
TTITLE13=Noites do Paraguay
EXTD=RGE\nRegravado em 1998 sob licença da Todamérica Música Ltda.
EXTT0=
EXTT1=
EXTT2=
EXTT3=
EXTT4=
EXTT5=
EXTT6=
EXTT7=
EXTT8=
EXTT9=
EXTT10=
EXTT11=
EXTT12=
EXTT13=
PLAYORDER=
